<?xml version="1.0" encoding="utf-8"?>
<!-- Generator: Adobe Illustrator 24.3.0, SVG Export Plug-In . SVG Version: 6.00 Build 0)  -->
<svg version="1.1" id="Layer_1" xmlns="http://www.w3.org/2000/svg" xmlns:xlink="http://www.w3.org/1999/xlink" x="0px" y="0px"
	 viewBox="0 0 24 24" style="enable-background:new 0 0 24 24;" xml:space="preserve">
<style type="text/css">
	.st0{fill:#0C0D36;}
	.st1{fill:#11B6EF;}
	.st2{fill:url(#SVGID_1_);}
</style>
<linearGradient id="SVGID_1_" gradientUnits="userSpaceOnUse" x1="4.1585" y1="23.5833" x2="19.8432" y2="1.2171">
	<stop  offset="0" style="stop-color:#21BF52"/>
	<stop  offset="1" style="stop-color:#008425"/>
</linearGradient>
<path class="st2" d="M18.6,15.6c0-1-0.2-1.9-0.6-2.6c-0.4-0.7-1-1.3-1.7-1.8c-0.7-0.4-1.6-0.9-2.8-1.3c-1.3-0.5-2.2-0.9-2.6-1.2
	S10.2,8,10.2,7.5c0-0.5,0.2-0.8,0.5-1.2c0.3-0.3,0.8-0.5,1.4-0.5c1.3,0,2.2,0.8,2.6,2.3c1.2,0,2.5,0,3.7,0c0-0.4-0.2-2.7-2.2-4.3
	c-0.8-0.7-1.7-1-2.5-1.2v-2h-3.9v2.1C9.2,3,8.5,3.4,7.9,4C6.8,5.1,6.3,6.5,6.3,8.1c0,1,0.2,1.9,0.7,2.6s1,1.4,1.7,1.8
	c0.7,0.4,1.8,0.9,3.2,1.4c1.1,0.4,1.8,0.8,2.1,1.1c0.3,0.4,0.5,0.8,0.5,1.2c0,0.6-0.2,1.1-0.7,1.4c-0.4,0.4-1,0.6-1.7,0.6
	c-1.5,0-2.5-0.9-3-2.8c-1.2,0-2.4,0-3.6,0c0,0.4,0.2,3.3,2.6,5c0.7,0.5,1.4,0.8,2,0.9v2h3.9v-2c1.1-0.3,2.1-0.7,2.8-1.4
	C18,18.8,18.6,17.4,18.6,15.6z"/>
</svg>
