<?xml version="1.0" encoding="utf-8"?>
<!-- Generator: Adobe Illustrator 24.3.0, SVG Export Plug-In . SVG Version: 6.00 Build 0)  -->
<svg version="1.1" id="Layer_1" xmlns="http://www.w3.org/2000/svg" xmlns:xlink="http://www.w3.org/1999/xlink" x="0px" y="0px"
	 viewBox="0 0 24 24" style="enable-background:new 0 0 24 24;" xml:space="preserve">
<style type="text/css">
	.st0{fill:#0C0D36;}
	.st1{fill:#11B6EF;}
	.st2{fill:url(#SVGID_1_);}
</style>
<path class="st0" d="M-20,14.8V10h-3l-7-6.5c0.1-0.2,0.1-0.5,0.1-0.7c0-1.2-1-2.1-2.1-2.1s-2.1,1-2.1,2.1c0,0.2,0,0.5,0.1,0.7
	l-7,6.5h-3v4.8h0.8l2.9,8.5h16.5l2.9-8.5H-20L-20,14.8z M-28.1,17.4h-3.1v-2.5h3.3L-28.1,17.4z M-32.8,21.6h-2.6l-0.3-2.6h2.9V21.6z
	 M-35.9,17.4l-0.2-2.5h3.3v2.5H-35.9z M-31.6,2.8c0,0.1-0.1,0.2-0.1,0.3c-0.1,0.1-0.2,0.1-0.3,0.1s-0.2,0-0.3-0.1
	c-0.1-0.1-0.1-0.2-0.1-0.3s0.1-0.2,0.1-0.3c0.1-0.1,0.2-0.1,0.3-0.1s0.2,0,0.3,0.1C-31.6,2.6-31.6,2.7-31.6,2.8z M-32.9,4.8
	c0.3,0.1,0.6,0.2,0.9,0.2s0.6-0.1,0.9-0.2l5.7,5.3h-13.1L-32.9,4.8z M-42.3,11.7h20.6v1.4h-20.6V11.7z M-37.8,14.8l0.2,2.5h-2.9
	l-0.9-2.5H-37.8z M-39,21.6l-0.9-2.6h2.5l0.3,2.6H-39z M-31.2,19h2.9l-0.3,2.6h-2.6V19z M-25,21.6h-1.9l0.3-2.6h2.5L-25,21.6z
	 M-23.5,17.4h-2.9l0.2-2.5h3.5L-23.5,17.4z"/>
<image style="overflow:visible;" width="512" height="512" xlink:href="C:\Users\HP\Downloads\dollar-symbol.png"  transform="matrix(7.533482e-02 0 0 7.533482e-02 -4.7143 -49.7749)">
</image>
<path class="st1" d="M50.4-22.5c0-6.3,0-12.7,0-19c0-0.3,0.1-0.3,0.3-0.3c12.7,0,25.3,0,38,0c0.3,0,0.3,0.1,0.3,0.3
	c0,12.7,0,25.3,0,38c0,0.3-0.1,0.3-0.3,0.3c-12.7,0-25.3,0-38,0c-0.3,0-0.3-0.1-0.3-0.3C50.4-9.9,50.4-16.2,50.4-22.5z"/>
<path class="st1" d="M65.9-4.2c-2.5-0.5-4.8-1.5-6.9-2.9c-0.8-0.6-1.6-1.1-2.3-1.9c-0.1-0.1-0.1-0.2-0.1-0.3c0-8.7,0-17.4,0-26.1
	c0-0.3-0.1-0.5,0-0.8c0.9-1,2-1.7,3.1-2.4c1.8-1.1,3.8-1.9,6-2.4c0,0,0.1,0,0.1,0c0.2,0.2,0.1,0.4,0.1,0.6c0,2.5,0,5,0,7.5
	c0,0.2,0,0.5,0.2,0.7c0.1,0.2-0.1,0.3-0.2,0.3c-0.5,0.2-1,0.4-1.4,0.7c-1,0.7-1.7,1.7-2,2.9c-0.3,1-0.3,2,0,3c0.2,1,0.8,1.8,1.6,2.5
	c0.1,0.1,0.2,0.2,0.3,0.3c0.4,0.5,0.9,0.9,1.4,1.4c0.4,0.5,0.9,0.9,1.3,1.3c0.1,0.1,0.4,0.2,0.2,0.5c-0.2,0.1-0.3,0-0.5,0
	c-1.4,0-2.8,0-4.2,0c-0.4,0-0.5,0.1-0.5,0.5c0.1,1.4,0.6,2.6,1.6,3.7c0.2,0.2,0.5,0.4,0.7,0.7c0,0.1,0.1,0.2,0.1,0.2
	c0.3,0.3,0.7,0.7,1,1c0.1,0.1,0.3,0.3,0.3,0.5c0,1.1,0,2.3,0,3.4c0,1.5,0,3.1,0,4.6C65.9-4.4,66-4.3,65.9-4.2z"/>
<path class="st1" d="M56.7-36.2c0.1,0.2,0.1,0.4,0.1,0.6c0,8.7,0,17.3,0,26c0,0.2,0,0.4-0.1,0.6c-1.3-1.1-2.3-2.5-3.2-4
	c-1.9-3.2-2.8-6.8-2.6-10.5c0.2-4.3,1.7-8.1,4.6-11.4C55.8-35.3,56.3-35.8,56.7-36.2z"/>
<path class="st1" d="M81.7-36.9c0.5,0.5,1.1,1,1.6,1.5c1.2,1.2,2.1,2.5,2.9,4c1.6,3,2.3,6.2,2.2,9.6c0,1.3-0.2,2.6-0.6,3.8
	c-0.3-0.3-0.7-0.7-1.1-0.9c-0.8-0.7-1.5-1.5-2.3-2.2c-0.7-0.7-1.4-1.4-2.1-2.1c-0.4-0.4-0.7-0.7-1.1-1.1c-0.1-0.1-0.3-0.3,0-0.4
	c0.2-0.2,0.2-0.4,0.2-0.7c0-3.6,0-7.1,0-10.7c0-0.2,0-0.4,0-0.5C81.5-36.8,81.5-37,81.7-36.9z"/>
<path class="st1" d="M81.7-36.9c-0.3,0.1-0.2,0.3-0.2,0.5c0,3.8,0,7.6,0,11.3c0,0.3,0,0.5-0.4,0.5c-0.2,0-0.3-0.1-0.4-0.2
	c-0.5-0.5-1-1-1.5-1.4c-1.5-1.6-3.1-3.1-4.7-4.7c-0.1-0.1-0.1-0.1-0.2-0.2c-0.3-0.3-0.5-0.6-0.8-0.9c-0.1-0.1-0.2-0.2,0-0.3
	c0.3,0.1,0.5,0.3,0.7,0.5c0.1,0.1,0.2,0.1,0.2-0.1c0-0.1,0-0.2,0-0.3c0-2.5,0-5.1,0-7.6c0-0.2-0.1-0.5,0.3-0.6
	c2.5,0.7,4.6,1.8,6.6,3.4C81.6-37.1,81.7-37,81.7-36.9z"/>
<path class="st1" d="M74.8-40.6c-0.2,0.1-0.2,0.3-0.2,0.5c0,2.7,0,5.4,0,8.1c0,0.1,0.1,0.3-0.1,0.4c-0.2,0.1-0.2-0.1-0.3-0.2
	c-0.3-0.2-0.5-0.4-0.8-0.5c-0.2,0-0.3-0.1-0.4-0.2c-0.4-0.4-0.8-0.8-1.3-1.3c0,0.5,0,0.9,0,1.3c0,0.1,0.1,0.3-0.2,0.3
	c-0.1-0.1-0.1-0.3-0.1-0.4c0-0.3,0-0.5,0-0.8c0-0.5,0-0.5-0.5-0.5c-1,0-2,0-3,0c-0.4,0-0.4,0-0.5,0.4c0,0.3,0,0.6,0,0.9
	c0,0.3-0.2,0.5-0.4,0.5c-0.3,0-0.5,0.2-0.8,0.1C66-32.1,66-32.3,66-32.5c0-2.8,0-5.6,0-8.4c1.6-0.4,3.2-0.4,4.8-0.4
	c1.3,0.1,2.7,0.3,3.9,0.7C74.7-40.7,74.8-40.6,74.8-40.6z"/>
<path class="st1" d="M86.6-14.5c-1.2,2.6-2.9,4.8-5.1,6.5c-2.1,1.7-4.4,2.9-6.9,3.5c-0.1,0-0.2,0-0.3,0.1c-0.2,0-0.3-0.1-0.3-0.2
	c-0.8-0.8-1.6-1.6-2.4-2.4c-0.1-0.1-0.2-0.2-0.2-0.3c0.3-0.1,0.5,0.2,0.8,0c0.1-0.1,0.3-0.1,0.4-0.2c0.1-0.1,0.2-0.2,0.3-0.1
	c0.5,0.2,0.9-0.2,1.2-0.5c0.7-0.4,1.3-0.9,2-1.1c0.3-0.1,0.5-0.3,0.7-0.4c0.4-0.3,1-0.4,1.4-0.8c0.3-0.3,0.8-0.4,1.2-0.7
	c0.3-0.2,0.6-0.3,0.8-0.5c0,0,0.1-0.1,0.1-0.1c0.6-0.1,1-0.4,1.5-0.7c0.1-0.1,0.2-0.1,0.3-0.1c0.7,0,1.3-0.5,1.8-0.9
	c0.3-0.2,0.7-0.4,1.1-0.5c0.4-0.2,0.8-0.4,1.3-0.6C86.4-14.5,86.5-14.6,86.6-14.5z"/>
<path class="st1" d="M71.4-7.2c0.9,1,1.9,1.9,2.9,2.9c-1.2,0.4-2.4,0.5-3.6,0.6c-1.6,0.1-3.2,0-4.8-0.4c-0.1-0.1-0.1-0.3-0.1-0.4
	c0-2.7,0-5.4,0-8.1c0.2,0,0.3,0.1,0.4,0.2c0.5,0.5,1,1,1.4,1.4c0,0,0.1,0,0.1,0.1c0.5,0.5,1,1,1.5,1.5c0.6,0.6,1.2,1.2,1.9,1.9
	C71.2-7.5,71.4-7.4,71.4-7.2z"/>
<path class="st1" d="M86.6-14.5c-0.4,0.2-0.8,0.5-1.2,0.6c-0.4,0.1-0.7,0.5-1.2,0.5c-0.1,0-0.1,0.1-0.2,0.1c-0.4,0.4-1,0.8-1.5,0.9
	c-0.7,0.1-1.2,0.5-1.7,0.9c-0.1,0.1-0.2,0.1-0.3,0c-0.1-0.1-0.2,0-0.3,0.1c-0.6,0.4-1.2,0.7-1.9,1.1c-0.1,0.1-0.2,0.2-0.3,0.3
	c0,0-0.1,0.1-0.1,0.1c-0.5,0-0.8,0.5-1.3,0.6c0,0-0.1,0-0.1,0c-0.6,0.5-1.5,0.6-2.1,1.1c-0.4,0.3-0.9,0.4-1.2,0.8
	c0,0.1-0.1,0.1-0.2,0.1c-0.3-0.3-0.4-0.1-0.6,0.1c-0.1,0.1-0.2,0.1-0.3,0.1c0-0.4,0.3-0.7,0.6-0.8c0.2-0.1,0.4-0.2,0.5-0.3
	c0.2-0.2,0.4-0.3,0.6-0.4c0.2-0.1,0.3-0.3,0.5-0.5c0.1-0.2,0.2-0.4,0.5-0.2c0.2,0.1,0.2-0.1,0.3-0.2c0.1-0.2,0.2-0.5,0.6-0.4
	c0.1,0,0.2-0.2,0.3-0.3c0.2-0.3,0.4-0.5,0.7-0.5c0,0,0.1,0,0.1-0.1c0.4-0.4,0.9-0.7,1.3-1.1c0.1-0.1,0.1-0.2,0.3-0.2
	c0.4,0,0.5-0.3,0.6-0.6c0.1-0.2,0.2-0.4,0.5-0.2c0.1,0.1,0.2,0,0.2-0.1c0.1-0.5,0.5-0.8,0.9-1.1c0.2-0.2,0.3-0.3,0.5-0.5
	c0.3-0.2,0.4-0.2,0.5,0.2c0.3-0.2,0.5-0.4,0.4-0.8c0-0.1,0-0.2,0.1-0.3c0.1-0.1,0.1-0.2,0.2-0.1c0.1,0,0.2,0.1,0.2,0.2
	c0,0.1,0,0.1,0,0.2c0.2-0.1,0.2-0.2,0.2-0.4c0-0.4,0.2-0.6,0.6-0.7c0.2,0,0.2-0.1,0.3-0.2c0.2-0.2,0.5-0.4,0.8-0.5
	c0.4-0.2,0.9-0.2,1.2-0.6c0.2-0.2,0.5-0.2,0.7-0.3c0.3-0.2,0.6-0.5,0.5-0.9c0.4,0.3,0.8,0.5,1.1,1C87.6-16.8,87.2-15.6,86.6-14.5z"
	/>
<path class="st1" d="M92-1.9c0.1,0,0.2,0,0.2-0.1c0.3-0.1,0.6,0,0.8-0.3c0.2-0.3,0.1-0.6,0.1-0.9c0-0.8,0-0.8,0.8-0.8c1,0,2,0,3,0
	c0.2,0,0.3,0.1,0.3,0.3c0,0.5,0,1,0,1.5c0.6,0,1.1,0.2,1.6,0.4c0.4,0.2,0.8,0.4,1.2,0.7c0.7,0.6,1.3,1.2,1.7,2
	c0.3,0.7,0.4,1.4,0.5,2.2c0,0.4-0.1,0.5-0.4,0.5c-1.5,0-3.1,0-4.6,0c0,0-0.1,0-0.1,0c-0.1-0.1-0.1-0.2-0.1-0.3
	c-0.1-0.5-0.4-0.9-0.9-1.1c-0.7-0.2-1.3-0.2-2,0.1c-0.7,0.3-0.8,1.1-0.2,1.6c0.3,0.3,0.7,0.4,1.1,0.5c0.3,0.1,0.7,0.2,1,0.3
	c1.1,0.3,2.2,0.5,3.3,1c0.6,0.3,1.2,0.6,1.8,1c0.6,0.6,1.2,1.2,1.5,2c0.1,0.4,0.2,0.7,0.3,1.1c0.2,1.2,0,2.4-0.5,3.6
	c-0.9,1.8-2.4,2.7-4.3,3.2c-0.5,0.1-0.5,0.1-0.5,0.6c0,0.3,0,0.7,0,1c0,0.2,0,0.3-0.2,0.4c-0.6,0.1-1.2,0-1.8,0c-0.6,0-1.2,0-1.8,0
	c-0.2,0-0.3,0-0.5-0.1l0,0c-0.2-0.3-0.1-0.7-0.1-1c0-0.8,0-0.8-0.7-1c-0.7-0.2-1.4-0.5-2-0.9c-0.1-0.1-0.1-0.1-0.2-0.2
	c-1.2-0.9-1.9-2.1-2.2-3.6c-0.3-1.3-0.3-1.3,1.1-1.3c1.3,0,2.7,0,4,0c0.2,0,0.2,0.2,0.2,0.3c0.1,0.8,0.9,1.5,1.8,1.5
	c0.6,0,1.1,0,1.6-0.3c0.7-0.4,0.8-1.3,0.2-1.9c-0.3-0.2-0.6-0.4-0.9-0.5c-0.6-0.2-1.2-0.4-1.9-0.5c-1.1-0.3-2.2-0.6-3.3-1.1
	c-0.2-0.1-0.4-0.3-0.6-0.5c-1-0.7-1.7-1.7-1.9-3c-0.5-2.7,0.5-5.3,3.6-6.3C91.9-1.8,91.9-1.8,92-1.9z"/>
<path class="st1" d="M68.4-20.8c0.9,0.2,1.8,0.4,2.6,0.8c0.5,0.2,0.8,0.6,0.8,1.2c0,0.6-0.3,0.9-0.8,1.2c-0.8,0.4-1.7,0.4-2.5,0.1
	c-0.6-0.3-0.9-0.8-1-1.4c0-0.1,0-0.2-0.1-0.2c-0.1-0.1-0.2-0.2-0.3-0.4c0-0.3,0.2-0.4,0.4-0.5C67.8-20.3,68.1-20.6,68.4-20.8z"/>
<path class="st1" d="M68.4-20.8c-0.2,0.3-0.4,0.6-0.7,0.7c-0.2,0.1-0.4,0.3-0.6,0.5c-0.9-0.9-1.7-1.7-2.6-2.6c0,0-0.1-0.1-0.1-0.2
	C65.6-21.6,66.9-21.2,68.4-20.8C68.3-20.9,68.4-20.9,68.4-20.8z"/>
<path class="st1" d="M64.5-14.2c0.9,0.6,1.9,1,2.9,1.2c0.2,0,0.3,0.1,0.3,0.3c0,0.6,0,1.1,0,1.7c-0.5-0.4-1-1-1.5-1.5
	c-0.1-0.1-0.2-0.2-0.3-0.3c-0.4-0.4-0.8-0.8-1.2-1.2C64.6-14,64.4-14.1,64.5-14.2z"/>
<path class="st1" d="M67.6-11c0.8,0,1.6,0,2.3,0c0.6,0,1.2,0.1,1.9,0c0-0.6,0-1.1,0-1.7c0-0.2,0.1-0.3,0.3-0.3
	c1.4-0.3,2.6-0.9,3.6-1.9c0.4-0.4,0.7-0.9,1-1.4c0.1,0,0.1,0,0.2-0.1c0.7-0.6,1.5-0.9,2.3-1.4c0.4-0.3,0.9-0.6,1.4-0.8
	c0.4-0.3,0.9-0.5,1.3-0.8c0.4-0.3,0.9-0.5,1.3-0.7c0.2-0.1,0.5-0.3,0.7-0.5c0.1-0.1,0.1-0.2,0.2-0.2c0.3,0,0.4-0.2,0.5-0.4
	c0.8,0.7,1.5,1.5,2.3,2.3c0,0.2,0.3,0.4,0.1,0.5c-0.2,0.2-0.5,0.5-0.8,0.6c-0.2,0.1-0.4,0.2-0.5,0.3c-0.1,0.1-0.3,0.2-0.5,0.2
	c-0.2,0-0.3,0.1-0.4,0.2c-0.1,0.1-0.3,0.2-0.5,0.2c-0.3,0-0.4,0.3-0.6,0.4c-0.7,0.2-1.3,0.7-2,1.1c-0.3,0.1-0.5,0.2-0.8,0.4
	c-0.1,0.1-0.2,0.1-0.2,0c-0.3-0.2-0.4,0-0.6,0.1c-0.4,0.2-0.8,0.5-1.3,0.7c-0.2,0.1-0.5,0.2-0.7,0.4c-0.1,0.1-0.3,0.2-0.5,0.2
	c-0.1,0-0.2,0-0.2,0.1c-0.3,0.3-0.7,0.5-1,0.7c-0.5,0.3-0.9,0.5-1.4,0.8c-0.6,0.2-1,0.6-1.6,0.9c-0.4,0.2-0.8,0.5-1.2,0.7
	c-0.5,0.2-1.1,0.5-1.6,0.8c-0.3,0.2-0.5,0.3-0.8,0.4c-0.2,0.1-0.4-0.1-0.6-0.2C68.7-9.9,68.1-10.4,67.6-11z"/>
<path class="st1" d="M77.2-20c-0.2-1.2-0.8-2.3-1.8-3.1c0.5-0.3,1-0.7,1.5-0.9c0.6-0.3,1.2-0.8,1.7-1.2c0.2-0.1,0.3-0.3,0.5-0.3
	c0.2-0.1,0.4-0.3,0.2-0.6c0-0.1-0.1-0.2,0-0.2c0.5,0.4,1,1,1.5,1.4c0.1,0.1,0.2,0.2,0.3,0.3c0.4,0.5,0.9,0.9,1.3,1.4
	c0.2,0.4,0.2,0.4-0.1,0.7c-0.5,0.3-1,0.7-1.5,1c-0.8,0.4-1.5,0.9-2.3,1.3c-0.2,0.1-0.4,0.2-0.5,0.4C77.8-19.8,77.5-19.8,77.2-20z"/>
<path class="st1" d="M77.2-20c0.4,0.1,0.7,0,1-0.3c0.3-0.3,0.8-0.5,1.2-0.6c0.3-0.1,0.6-0.4,0.9-0.5c0.3-0.2,0.7-0.4,1-0.6
	c0.4-0.2,0.7-0.6,1.1-0.8c0.2-0.1,0.1-0.3,0-0.5c0.7,0.7,1.4,1.4,2.1,2.1c0,0.2,0.1,0.6-0.4,0.5c0,0-0.1,0-0.1,0.1
	c-0.6,0.6-1.3,0.8-2,1.2c-0.4,0.3-0.9,0.5-1.4,0.8c-0.4,0.3-0.8,0.6-1.2,0.8c-0.5,0.2-0.9,0.6-1.4,0.9c-0.2,0.1-0.3,0.3-0.5,0.3
	c-0.2,0-0.3,0.2-0.4,0.3c-0.1,0.1-0.2,0.3-0.4,0.1C77.2-17.5,77.4-18.7,77.2-20z"/>
<path class="st1" d="M79.4-26.4c0.2,0.6,0.2,0.6-0.4,1c-0.3,0.2-0.5,0.4-0.7,0.6c-0.4,0.4-0.8,0.6-1.3,0.9c-0.5,0.3-0.9,0.8-1.6,0.9
	c-1.5-1.1-3.3-1.5-5-2c-0.1,0-0.1,0-0.2-0.1c0.3-0.3,0.7-0.5,1.1-0.8c0.3-0.2,0.3-0.2,0.1-0.5c0,0,0,0,0-0.1c1,0.1,1.9,0,2.9,0
	c0.7,0,1.4,0,2.1,0c0.2,0,0.3-0.1,0.3-0.3c-0.1-1.8-0.7-3.3-2.2-4.4c0-0.1,0-0.1,0-0.2c0.1,0,0.2,0.1,0.3,0.2
	c1.4,1.4,2.9,2.9,4.3,4.3C79.2-26.6,79.3-26.5,79.4-26.4z"/>
<path class="st1" d="M74.5-31.3c0,0.1,0,0.1,0,0.2c-0.9-0.6-1.8-0.9-2.8-1.2c0-0.6,0-1.1,0-1.8c0.7,0.6,1.2,1.2,1.8,1.8
	C73.8-32,74.1-31.6,74.5-31.3z"/>
<path class="st1" d="M69.2-9.4c0.5,0.2,0.9,0,1.2-0.3c0.4-0.3,0.8-0.4,1.2-0.6c0.5-0.3,1-0.5,1.5-0.8c0.3-0.2,0.6-0.4,0.9-0.6
	c0.5-0.4,1.1-0.6,1.7-0.9c0.4-0.2,0.8-0.6,1.3-0.7c0.1,0,0.2-0.2,0.3-0.3c0.1-0.1,0.2-0.2,0.4-0.1c0.2,0.1,0.3,0,0.3-0.1
	c0.5-0.5,1.2-0.7,1.8-1.1c0.1-0.1,0.2-0.1,0.3-0.2c0.2-0.1,0.3-0.4,0.5,0c0.1,0.1,0.2,0,0.3-0.1c0.4-0.3,0.8-0.6,1.3-0.8
	c0.2-0.1,0.3-0.1,0.5-0.3c0.3-0.2,0.5-0.4,0.9-0.3c-0.1,0.2-0.1,0.4-0.4,0.3c-0.2-0.1-0.5,0.3-0.4,0.6c0,0.2,0,0.3-0.1,0.4
	c-0.1,0.1-0.1,0.2-0.3,0.2c-0.1-0.1,0-0.2,0-0.3c0-0.1,0.1-0.2,0-0.2c-0.1,0-0.2,0-0.2,0.1c0,0.1-0.1,0.2,0,0.3
	c0.1,0.3-0.2,0.8-0.5,0.9c-0.2,0.1-0.2,0-0.2-0.2c0-0.1,0.1-0.2,0-0.2c-0.1,0-0.1,0-0.2,0.1c-0.4,0.3-0.8,0.7-1.1,1
	c-0.1,0.1-0.2,0.3-0.3,0.5c0,0.2-0.1,0.4-0.3,0.1c-0.2-0.2-0.2-0.1-0.3,0.1c-0.1,0.1-0.1,0.3-0.2,0.4c0,0.1-0.1,0.2-0.2,0.2
	c-0.4,0-0.5,0.4-0.7,0.5c-0.5,0.3-0.8,0.9-1.5,1.1c-0.3,0.1-0.4,0.3-0.5,0.5c-0.1,0.1-0.1,0.2-0.2,0.2c-0.4-0.1-0.4,0.2-0.6,0.4
	c-0.1,0.2-0.2,0.4-0.4,0.1c-0.1-0.1-0.2,0-0.2,0.1c-0.2,0.4-0.4,0.7-0.9,0.7c-0.1,0-0.2,0.2-0.3,0.3C73.3-8.2,73.1-8,72.8-8
	c-0.3,0.1-0.5,0.4-0.6,0.7c-0.3,0.3-0.6,0.1-0.8,0C70.6-7.9,69.9-8.7,69.2-9.4z"/>
<path class="st1" d="M71.4-26.4C71.4-26.4,71.4-26.4,71.4-26.4c0.2,0.1,0.4,0,0.4,0.2c0,0.1-0.1,0.2-0.2,0.3
	c-0.4,0.3-0.8,0.6-1.3,0.8c-0.7-0.1-1.4-0.3-2-0.7c-0.4-0.3-0.7-0.6-0.6-1.1c0.1-0.5,0.4-0.8,0.8-0.9c0.6-0.2,1.2-0.2,1.8,0
	C71-27.7,71.4-27.2,71.4-26.4z"/>
<path class="st1" d="M71.8-11c-0.1,0.2-0.3,0.1-0.4,0.1c-0.5,0-1,0.1-1.4-0.1C70.6-11,71.2-11,71.8-11z"/>
<text transform="matrix(1 0 0 1 16.5 -62.7144)" style="font-family:'MyriadPro-Regular'; font-size:12px;">S</text>
<linearGradient id="SVGID_1_" gradientUnits="userSpaceOnUse" x1="4.1585" y1="23.5833" x2="19.8432" y2="1.2171">
	<stop  offset="0" style="stop-color:#21BF52"/>
	<stop  offset="1" style="stop-color:#008425"/>
</linearGradient>
<path class="st2" d="M18.6,15.6c0-1-0.2-1.9-0.6-2.6c-0.4-0.7-1-1.3-1.7-1.8c-0.7-0.4-1.6-0.9-2.8-1.3c-1.3-0.5-2.2-0.9-2.6-1.2
	S10.2,8,10.2,7.5c0-0.5,0.2-0.8,0.5-1.2c0.3-0.3,0.8-0.5,1.4-0.5c1.3,0,2.2,0.8,2.6,2.3c1.2,0,2.5,0,3.7,0c0-0.4-0.2-2.7-2.2-4.3
	c-0.8-0.7-1.7-1-2.5-1.2v-2h-3.9v2.1C9.2,3,8.5,3.4,7.9,4C6.8,5.1,6.3,6.5,6.3,8.1c0,1,0.2,1.9,0.7,2.6s1,1.4,1.7,1.8
	c0.7,0.4,1.8,0.9,3.2,1.4c1.1,0.4,1.8,0.8,2.1,1.1c0.3,0.4,0.5,0.8,0.5,1.2c0,0.6-0.2,1.1-0.7,1.4c-0.4,0.4-1,0.6-1.7,0.6
	c-1.5,0-2.5-0.9-3-2.8c-1.2,0-2.4,0-3.6,0c0,0.4,0.2,3.3,2.6,5c0.7,0.5,1.4,0.8,2,0.9v2h3.9v-2c1.1-0.3,2.1-0.7,2.8-1.4
	C18,18.8,18.6,17.4,18.6,15.6z"/>
</svg>
