<svg id="Layer_1" data-name="Layer 1" xmlns="http://www.w3.org/2000/svg" xmlns:xlink="http://www.w3.org/1999/xlink" viewBox="0 0 1080 333.643"><defs><style>.cls-1{fill:url(#linear-gradient);}.cls-2{fill:url(#New_Gradient_Swatch_2);}.cls-3{fill:url(#New_Gradient_Swatch_2-2);}.cls-4{fill:url(#New_Gradient_Swatch_2-3);}.cls-5{fill:url(#New_Gradient_Swatch_2-4);}.cls-6{fill:url(#New_Gradient_Swatch_2-5);}.cls-7{fill:url(#New_Gradient_Swatch_2-6);}.cls-8{fill:url(#New_Gradient_Swatch_2-7);}.cls-10,.cls-9{font-size:35.805px;}.cls-9{fill:#231f20;font-family:ArialMT, Arial;}.cls-10{fill:#293b80;font-family:Mistral;}.cls-11{fill:url(#linear-gradient-2);}.cls-12{font-size:55px;fill:#0077b6;font-family:Poppins-Bold, Poppins;font-weight:700;letter-spacing:0.03em;}.cls-13{font-size:34px;font-family:Poppins-Regular, Poppins;letter-spacing:0.03em;}</style><linearGradient id="linear-gradient" x1="110.009" y1="175.737" x2="268.062" y2="175.737" gradientUnits="userSpaceOnUse"><stop offset="0" stop-color="#1082c1"/><stop offset="0.061" stop-color="#117ab7"/><stop offset="0.359" stop-color="#13578a"/><stop offset="0.626" stop-color="#153e6a"/><stop offset="0.849" stop-color="#162f56"/><stop offset="1" stop-color="#16294f"/></linearGradient><linearGradient id="New_Gradient_Swatch_2" x1="183.835" y1="84.481" x2="184.104" y2="59.438" gradientTransform="translate(-0.063 0.164) rotate(-0.448)" gradientUnits="userSpaceOnUse"><stop offset="0" stop-color="#1082c1"/><stop offset="0.242" stop-color="#1379b7"/><stop offset="0.653" stop-color="#1c5f9c"/><stop offset="1" stop-color="#254580"/></linearGradient><linearGradient id="New_Gradient_Swatch_2-2" x1="319.947" y1="52.013" x2="322.273" y2="19.92" gradientTransform="translate(67.997 -152.864) rotate(45.933)" xlink:href="#New_Gradient_Swatch_2"/><linearGradient id="New_Gradient_Swatch_2-3" x1="17.662" y1="-39.579" x2="15.006" y2="-75.099" gradientTransform="translate(136.355 194.245) rotate(-89.532)" xlink:href="#New_Gradient_Swatch_2"/><linearGradient id="New_Gradient_Swatch_2-4" x1="104.674" y1="84.854" x2="111.504" y2="51.015" gradientTransform="translate(-11.897 135.917) rotate(-44.981)" xlink:href="#New_Gradient_Swatch_2"/><linearGradient id="New_Gradient_Swatch_2-5" x1="92.904" y1="-111.245" x2="91.32" y2="-136.421" gradientTransform="translate(263.305 226.796) rotate(-133.746)" xlink:href="#New_Gradient_Swatch_2"/><linearGradient id="New_Gradient_Swatch_2-6" x1="185.521" y1="-129.027" x2="183.443" y2="-157.727" gradientTransform="translate(368.812 141.709) rotate(-178.834)" xlink:href="#New_Gradient_Swatch_2"/><linearGradient id="New_Gradient_Swatch_2-7" x1="242.938" y1="-94.48" x2="242.875" y2="-119.688" gradientTransform="translate(393.644 41.545) rotate(146.977)" xlink:href="#New_Gradient_Swatch_2"/><linearGradient id="linear-gradient-2" x1="108.525" y1="167.107" x2="171.719" y2="170.002" gradientTransform="matrix(0.999, 0.047, -0.047, 1.002, 2.336, -3.216)" gradientUnits="userSpaceOnUse"><stop offset="0" stop-color="#1082c1"/><stop offset="0.188" stop-color="#1670ae"/><stop offset="0.496" stop-color="#1e5895"/><stop offset="0.775" stop-color="#234a85"/><stop offset="1" stop-color="#254580"/></linearGradient></defs><path class="cls-1" d="M241.128,223.383c.02.034-9.85,8.269-25.859,12.493-5.823,1.537-21.793,5.751-38.129.482-23.358-7.532-41.215-32.434-41.349-59.063-.014-2.6.394-35.138,28.428-52.675,25.316-15.837,52.35-6.411,56.459-4.9a66.827,66.827,0,0,1,28.979,21.07c-3.711-6.02-17.022-25.881-42.844-33.32-30.158-8.689-60.6,4.4-77.943,23.52-4.508,4.97-18.922,21.366-18.861,46.06.061,25.224,15.192,41.741,19.486,46.3,16.268,17.293,39.337,24.405,58.957,23.275C218.789,244.883,241.1,223.33,241.128,223.383Z"/><path class="cls-2" d="M195.66,100.078a59.166,59.166,0,0,0-22.562.3c5.617-6.183,6.736-11.206,6.665-14.72-.146-7.212-5.364-11.159-5.2-20.286a25.032,25.032,0,0,1,1.647-8.4c.173-.3,2.609-4.337,7.187-4.538,4.183-.183,6.8,2.987,7.445,3.766,1.6,1.933,2.488,4.452,2.542,8.745.122,9.719-4.246,12.837-4.439,19.645C188.84,88.3,189.959,93.567,195.66,100.078Z"/><path class="cls-3" d="M249.987,130.688a57.094,57.094,0,0,0-6.906-8.47,57.9,57.9,0,0,0-8.877-7.343c8.439-.278,12.918-2.948,15.463-5.423,5.223-5.079,4.537-11.507,11.387-17.687a26.039,26.039,0,0,1,7.335-4.623c.338-.083,5-1.141,8.307,1.971,3.022,2.844,2.488,6.891,2.357,7.884-.325,2.467-1.57,4.838-4.7,7.838-7.09,6.791-12.406,5.841-17.563,10.4C253.981,117.718,250.861,122.149,249.987,130.688Z"/><path class="cls-4" d="M105.125,165.047a55.8,55.8,0,0,0-.057,22.128c-6.215-5.606-11.318-6.783-14.9-6.77-7.355.028-11.462,5.082-20.765,4.776a26.381,26.381,0,0,1-8.535-1.75c-.3-.174-4.38-2.627-4.512-7.119-.12-4.106,3.155-6.623,3.959-7.241,2-1.535,4.579-2.369,8.956-2.353,9.911.036,13.021,4.369,19.958,4.667C93,171.546,98.4,170.533,105.125,165.047Z"/><path class="cls-5" d="M135.079,116.178a57.842,57.842,0,0,0-8.525,6.907,57.2,57.2,0,0,0-7.345,8.823c-.418-8.271-3.212-12.621-5.776-15.078-5.261-5.04-11.8-4.265-18.214-10.884a25.434,25.434,0,0,1-4.83-7.118c-.089-.33-1.242-4.886,1.878-8.178,2.851-3.008,6.985-2.549,8-2.437,2.521.28,4.957,1.463,8.065,4.486,7.037,6.845,6.154,12.072,10.885,17.057C121.792,112.469,126.359,115.457,135.079,116.178Z"/><path class="cls-6" d="M119.09,220.207a57.093,57.093,0,0,0,6.858,8.509,57.764,57.764,0,0,0,8.835,7.391c-8.441.231-12.935,2.877-15.495,5.338-5.251,5.05-4.6,11.482-11.488,17.624a26.009,26.009,0,0,1-7.36,4.583c-.339.081-5.008,1.113-8.3-2.017-3.006-2.86-2.449-6.9-2.312-7.9.339-2.465,1.6-4.829,4.747-7.811,7.129-6.752,12.439-5.773,17.622-10.3C115.022,233.156,118.167,228.742,119.09,220.207Z"/><path class="cls-7" d="M168.976,252.127a59.152,59.152,0,0,0,22.561.326c-5.792,6.026-7.054,11.016-7.084,14.531-.062,7.213,5.041,11.3,4.615,20.422a25.052,25.052,0,0,1-1.887,8.347c-.181.292-2.732,4.264-7.314,4.338-4.187.068-6.714-3.174-7.335-3.97-1.54-1.976-2.359-4.519-2.289-8.811.158-9.719,4.613-12.716,5-19.515C175.455,264.094,174.488,258.794,168.976,252.127Z"/><path class="cls-8" d="M221.611,243.316a58.482,58.482,0,0,0,9.8-5.025,57.883,57.883,0,0,0,9.049-7.139c-1.339,8.177.476,13,2.465,15.924,4.082,6,10.646,6.571,15.519,14.349a25.168,25.168,0,0,1,3.222,7.945c.018.341.183,5.033-3.565,7.619-3.424,2.364-7.372,1.075-8.341.758-2.407-.786-4.541-2.438-6.943-6.027-5.438-8.126-3.469-13.06-7.045-18.9C233.826,249.644,229.989,245.793,221.611,243.316Z"/><text class="cls-9" transform="translate(160.35 179.1) scale(1.02 1)">Sea Education</text><text class="cls-10" transform="translate(184.227 207.99) scale(1.02 1)">Navigate Your Future</text><path class="cls-11" d="M143.08,205.973c-12.545-23.979-3.93-47.59-2.505-51.3a60.033,60.033,0,0,1,52.238-39.052,73.552,73.552,0,0,0-13.789,1.424,82.3,82.3,0,0,0-16.288,5.294c-10.022,4.688-33.76,23.413-34.795,52.48-1.237,34.7,30.874,62.684,56.129,64.051a36.735,36.735,0,0,0,4.263-.016,66.088,66.088,0,0,1-22.051-8.467A64.338,64.338,0,0,1,143.08,205.973Z"/><text class="cls-12" transform="translate(481.425 166.726)">SEA EDUCATION</text><text class="cls-13" transform="translate(483.735 213.232)">Hotel and Cruise Ship Institute</text></svg>