<?xml version="1.0" encoding="utf-8"?>
<!-- Generator: Adobe Illustrator 24.3.0, SVG Export Plug-In . SVG Version: 6.00 Build 0)  -->
<svg version="1.1" id="Layer_1" xmlns="http://www.w3.org/2000/svg" xmlns:xlink="http://www.w3.org/1999/xlink" x="0px" y="0px"
	 viewBox="0 0 1440 320" style="enable-background:new 0 0 1440 320;" xml:space="preserve">
<style type="text/css">
	.st0{fill:#CFECF5;}
</style>
<path class="st0" d="M1440,232.9V320H0v-87.1c6.3-1.4,16.1-3.3,28.2-3.9c61.6-3,87.9,31.2,131.8,40.6
	c62.6,13.5,72.4-42.5,161.4-48.4c63.7-4.2,66.6,24,158.6,32.4c79.4,7.3,83.5-12.9,160-5.3c53.3,5.3,107,37.3,160,37.3
	c53.3,0,107-32,160-26.7c34.5,3.7,69.1,22.5,103.5,29.7c14.1,2.9,33.1,2.2,56.5-3c57.2-12.9,61.1-46.8,111.6-56.6
	c35-6.8,67.1,2.8,77.2,5.8c39.8,11.9,53.5,31.7,81,28.9C1412.1,261.6,1429,246,1440,232.9z"/>
</svg>
